<svg width="65" height="25" viewBox="0 0 65 25" fill="none" xmlns="http://www.w3.org/2000/svg">
<path d="M14.71 2.00001H19.6V24.05L5.11 11.42V23H0.220001V0.950016L14.71 13.58V2.00001Z" fill="white"/>
<path d="M27.4291 16.1C27.4291 17.18 27.7291 18.02 28.3591 18.62C28.9891 19.25 29.7391 19.55 30.6391 19.55C31.5091 19.55 32.2591 19.25 32.8891 18.62C33.5191 18.02 33.8491 17.18 33.8491 16.1C33.8491 15.05 33.5191 14.21 32.8891 13.58C32.2591 12.95 31.5091 12.62 30.6391 12.62C29.7391 12.62 28.9891 12.95 28.3591 13.58C27.7291 14.21 27.4291 15.05 27.4291 16.1ZM22.7491 16.1C22.7491 14.66 23.0791 13.37 23.7691 12.29C24.4591 11.21 25.3891 10.4 26.5891 9.80002C27.7891 9.20002 29.1391 8.90002 30.6391 8.90002C32.1391 8.90002 33.4591 9.20002 34.6591 9.80002C35.8591 10.4 36.7891 11.21 37.4791 12.29C38.1691 13.37 38.5291 14.66 38.5291 16.1C38.5291 17.57 38.1691 18.83 37.4791 19.91C36.7891 20.99 35.8591 21.83 34.6591 22.43C33.4591 23.03 32.1391 23.3 30.6391 23.3C29.1391 23.3 27.7891 23.03 26.5891 22.43C25.3891 21.83 24.4591 20.99 23.7691 19.91C23.0791 18.83 22.7491 17.57 22.7491 16.1Z" fill="white"/>
<path d="M53.3451 2.48002L47.9451 6.98001L45.3951 5.69002L49.8951 0.890015L53.3451 2.48002ZM45.0351 17.06C45.1851 18.14 45.5451 18.89 46.1451 19.34C46.7151 19.82 47.4051 20.03 48.1851 20.03C48.9951 20.03 49.6851 19.88 50.2551 19.55C50.8251 19.25 51.2751 18.8 51.6051 18.23L55.6551 19.22C54.9651 20.45 54.0351 21.44 52.8951 22.19C51.7551 22.94 50.1951 23.3 48.2451 23.3C46.5651 23.3 45.1251 23 43.9851 22.37C42.8151 21.77 41.9151 20.9 41.3151 19.82C40.7151 18.74 40.4151 17.48 40.4151 16.1C40.4151 15.86 40.4151 15.59 40.4451 15.35C40.4451 15.11 40.4751 14.87 40.5351 14.63C40.8051 12.95 41.5851 11.57 42.8751 10.49C44.1651 9.44002 45.9351 8.90002 48.1851 8.90002C50.5851 8.90002 52.4451 9.53002 53.7051 10.76C54.9651 12.02 55.6251 13.73 55.6251 15.89V16.4C55.6251 16.61 55.5951 16.82 55.5651 17.06H45.0351ZM45.0951 14.54H50.7651C50.6451 13.73 50.3751 13.1 49.9551 12.62C49.5351 12.17 48.9051 11.93 48.0951 11.93C47.2851 11.93 46.6251 12.17 46.0851 12.62C45.5451 13.07 45.2151 13.7 45.0951 14.54Z" fill="white"/>
<path d="M58.6623 20.96C58.6623 20.21 58.9023 19.55 59.4423 19.01C59.9823 18.47 60.6423 18.2 61.4823 18.2C62.2923 18.2 62.9823 18.47 63.5223 19.01C64.0623 19.55 64.3323 20.21 64.3323 20.96C64.3323 21.71 64.0623 22.37 63.5223 22.91C62.9823 23.45 62.2923 23.72 61.4823 23.72C60.6423 23.72 59.9823 23.45 59.4423 22.91C58.9023 22.37 58.6623 21.71 58.6623 20.96Z" fill="white"/>
</svg>
