<svg width="19" height="19" viewBox="0 0 19 19" fill="none" xmlns="http://www.w3.org/2000/svg">
<path d="M15.9636 4.57839H13.2568V3.67612C13.2568 2.95822 12.9716 2.26974 12.464 1.76211C11.9564 1.25448 11.2679 0.969299 10.55 0.969299H8.74546C8.02756 0.969299 7.33907 1.25448 6.83145 1.76211C6.32382 2.26974 6.03864 2.95822 6.03864 3.67612V4.57839H3.33182C2.61393 4.57839 1.92544 4.86357 1.41781 5.3712C0.910182 5.87883 0.625 6.56732 0.625 7.28521V15.4057C0.625 16.1236 0.910182 16.812 1.41781 17.3197C1.92544 17.8273 2.61393 18.1125 3.33182 18.1125H15.9636C16.6815 18.1125 17.37 17.8273 17.8776 17.3197C18.3853 16.812 18.6705 16.1236 18.6705 15.4057V7.28521C18.6705 6.56732 18.3853 5.87883 17.8776 5.3712C17.37 4.86357 16.6815 4.57839 15.9636 4.57839ZM7.84318 3.67612C7.84318 3.43682 7.93824 3.20732 8.10745 3.03811C8.27666 2.86891 8.50616 2.77384 8.74546 2.77384H10.55C10.7893 2.77384 11.0188 2.86891 11.188 3.03811C11.3572 3.20732 11.4523 3.43682 11.4523 3.67612V4.57839H7.84318V3.67612ZM16.8659 15.4057C16.8659 15.645 16.7709 15.8745 16.6016 16.0437C16.4324 16.2129 16.2029 16.3079 15.9636 16.3079H3.33182C3.09252 16.3079 2.86302 16.2129 2.69382 16.0437C2.52461 15.8745 2.42955 15.645 2.42955 15.4057V10.4432C3.30966 10.7923 4.2144 11.0757 5.13636 11.2913V11.8236C5.13636 12.0629 5.23142 12.2924 5.40063 12.4616C5.56984 12.6309 5.79934 12.7259 6.03864 12.7259C6.27793 12.7259 6.50743 12.6309 6.67664 12.4616C6.84585 12.2924 6.94091 12.0629 6.94091 11.8236V11.6342C7.83808 11.7563 8.74229 11.8196 9.64773 11.8236C10.5532 11.8196 11.4574 11.7563 12.3545 11.6342V11.8236C12.3545 12.0629 12.4496 12.2924 12.6188 12.4616C12.788 12.6309 13.0175 12.7259 13.2568 12.7259C13.4961 12.7259 13.7256 12.6309 13.8948 12.4616C14.064 12.2924 14.1591 12.0629 14.1591 11.8236V11.2913C15.0811 11.0757 15.9858 10.7923 16.8659 10.4432V15.4057ZM16.8659 8.46719C15.9884 8.83756 15.0834 9.13923 14.1591 9.36946V9.08975C14.1591 8.85046 14.064 8.62096 13.8948 8.45175C13.7256 8.28254 13.4961 8.18748 13.2568 8.18748C13.0175 8.18748 12.788 8.28254 12.6188 8.45175C12.4496 8.62096 12.3545 8.85046 12.3545 9.08975V9.75744C10.5602 10.0282 8.7353 10.0282 6.94091 9.75744V9.08975C6.94091 8.85046 6.84585 8.62096 6.67664 8.45175C6.50743 8.28254 6.27793 8.18748 6.03864 8.18748C5.79934 8.18748 5.56984 8.28254 5.40063 8.45175C5.23142 8.62096 5.13636 8.85046 5.13636 9.08975V9.3875C4.21209 9.15727 3.3071 8.85561 2.42955 8.48523V7.28521C2.42955 7.04591 2.52461 6.81641 2.69382 6.64721C2.86302 6.478 3.09252 6.38294 3.33182 6.38294H15.9636C16.2029 6.38294 16.4324 6.478 16.6016 6.64721C16.7709 6.81641 16.8659 7.04591 16.8659 7.28521V8.46719Z" fill="#FFA97A"/>
</svg>
