<svg width="23" height="23" viewBox="0 0 23 23" fill="none" xmlns="http://www.w3.org/2000/svg">
<path d="M17.9636 6.57839H15.2568V5.67612C15.2568 4.95822 14.9716 4.26974 14.464 3.76211C13.9564 3.25448 13.2679 2.9693 12.55 2.9693H10.7455C10.0276 2.9693 9.33907 3.25448 8.83145 3.76211C8.32382 4.26974 8.03864 4.95822 8.03864 5.67612V6.57839H5.33182C4.61393 6.57839 3.92544 6.86357 3.41781 7.3712C2.91018 7.87883 2.625 8.56732 2.625 9.28521V17.4057C2.625 18.1236 2.91018 18.812 3.41781 19.3197C3.92544 19.8273 4.61393 20.1125 5.33182 20.1125H17.9636C18.6815 20.1125 19.37 19.8273 19.8776 19.3197C20.3853 18.812 20.6705 18.1236 20.6705 17.4057V9.28521C20.6705 8.56732 20.3853 7.87883 19.8776 7.3712C19.37 6.86357 18.6815 6.57839 17.9636 6.57839ZM9.84318 5.67612C9.84318 5.43682 9.93824 5.20732 10.1075 5.03811C10.2767 4.86891 10.5062 4.77384 10.7455 4.77384H12.55C12.7893 4.77384 13.0188 4.86891 13.188 5.03811C13.3572 5.20732 13.4523 5.43682 13.4523 5.67612V6.57839H9.84318V5.67612ZM18.8659 17.4057C18.8659 17.645 18.7709 17.8745 18.6016 18.0437C18.4324 18.2129 18.2029 18.3079 17.9636 18.3079H5.33182C5.09252 18.3079 4.86302 18.2129 4.69382 18.0437C4.52461 17.8745 4.42955 17.645 4.42955 17.4057V12.4432C5.30966 12.7923 6.2144 13.0757 7.13636 13.2913V13.8236C7.13636 14.0629 7.23142 14.2924 7.40063 14.4616C7.56984 14.6309 7.79934 14.7259 8.03864 14.7259C8.27793 14.7259 8.50743 14.6309 8.67664 14.4616C8.84585 14.2924 8.94091 14.0629 8.94091 13.8236V13.6342C9.83808 13.7563 10.7423 13.8196 11.6477 13.8236C12.5532 13.8196 13.4574 13.7563 14.3545 13.6342V13.8236C14.3545 14.0629 14.4496 14.2924 14.6188 14.4616C14.788 14.6309 15.0175 14.7259 15.2568 14.7259C15.4961 14.7259 15.7256 14.6309 15.8948 14.4616C16.064 14.2924 16.1591 14.0629 16.1591 13.8236V13.2913C17.0811 13.0757 17.9858 12.7923 18.8659 12.4432V17.4057ZM18.8659 10.4672C17.9884 10.8376 17.0834 11.1392 16.1591 11.3695V11.0898C16.1591 10.8505 16.064 10.621 15.8948 10.4518C15.7256 10.2825 15.4961 10.1875 15.2568 10.1875C15.0175 10.1875 14.788 10.2825 14.6188 10.4518C14.4496 10.621 14.3545 10.8505 14.3545 11.0898V11.7574C12.5602 12.0282 10.7353 12.0282 8.94091 11.7574V11.0898C8.94091 10.8505 8.84585 10.621 8.67664 10.4518C8.50743 10.2825 8.27793 10.1875 8.03864 10.1875C7.79934 10.1875 7.56984 10.2825 7.40063 10.4518C7.23142 10.621 7.13636 10.8505 7.13636 11.0898V11.3875C6.21209 11.1573 5.3071 10.8556 4.42955 10.4852V9.28521C4.42955 9.04591 4.52461 8.81641 4.69382 8.64721C4.86302 8.478 5.09252 8.38294 5.33182 8.38294H17.9636C18.2029 8.38294 18.4324 8.478 18.6016 8.64721C18.7709 8.81641 18.8659 9.04591 18.8659 9.28521V10.4672Z" fill="#FFA97A"/>
</svg>
